<svg xmlns="http://www.w3.org/2000/svg" width="360" height="80" viewBox="0 0 360 80">
  <!-- Fond bandeau -->
  <rect width="360" height="80" rx="14" fill="#0F172A"/>
  
  <!-- Cercle icône -->
  <circle cx="44" cy="40" r="28" fill="none" stroke="#38BDF8" stroke-width="2"/>
  <path d="M22 30 A28 28 0 0 1 66 30" fill="none" stroke="#0EA5E9" stroke-width="5" stroke-linecap="round" opacity="0.35"/>
  
  <!-- Points circuit mini -->
  <circle cx="18" cy="39" r="3" fill="#38BDF8" opacity="0.5"/>
  <line x1="18" y1="39" x2="26" y2="39" stroke="#38BDF8" stroke-width="1.5" opacity="0.3"/>
  <circle cx="70" cy="41" r="3" fill="#38BDF8" opacity="0.5"/>
  <line x1="62" y1="41" x2="70" y2="41" stroke="#38BDF8" stroke-width="1.5" opacity="0.3"/>
  
  <!-- Éclair -->
  <path d="M47 18 L36 40 L44 40 L37 62 L56 41 L47 41 Z" fill="#38BDF8"/>
  <path d="M47 18 L43 29 L46 29 L44 37 L50 30 L47 30 Z" fill="#BAE6FD" opacity="0.6"/>

  <!-- Séparateur vertical -->
  <line x1="88" y1="18" x2="88" y2="62" stroke="#1E3A5F" stroke-width="1.5"/>

  <!-- Texte -->
  <text x="106" y="34" font-family="Georgia, serif" font-size="22" font-weight="700" fill="#F8FAFC" letter-spacing="-0.5">EnergiSuivi</text>
  <text x="107" y="54" font-family="'Courier New', monospace" font-size="11" fill="#38BDF8" letter-spacing="1.5">SUIVI ÉLECTRIQUE INTELLIGENT</text>
</svg>
